<svg xmlns="http://www.w3.org/2000/svg" xmlns:xlink="http://www.w3.org/1999/xlink" width="500" zoomAndPan="magnify" viewBox="0 0 375 374.999991" height="500" preserveAspectRatio="xMidYMid meet" version="1.0"><defs><clipPath id="efdf9721e9"><path d="M 45.0625 23.070312 L 330 23.070312 L 330 351.570312 L 45.0625 351.570312 Z M 45.0625 23.070312 " clip-rule="nonzero"/></clipPath></defs><rect x="-37.5" width="450" fill="#ffffff" y="-37.499999" height="449.999989" fill-opacity="1"/><rect x="-37.5" width="450" fill="#151030" y="-37.499999" height="449.999989" fill-opacity="1"/><g clip-path="url(#efdf9721e9)"><path fill="#62fad7" d="M 193.410156 26.589844 L 258.679688 64.261719 L 323.945312 101.929688 L 329.933594 105.363281 L 329.933594 118.941406 L 323.945312 122.375 L 252.765625 163.476562 L 187.496094 125.804688 L 134.203125 156.613281 L 134.203125 218.304688 L 187.496094 249.113281 L 252.765625 211.441406 L 276.492188 225.167969 C 294.304688 235.460938 312.121094 245.753906 329.933594 256.046875 L 329.933594 269.628906 L 323.945312 273.058594 L 258.679688 310.730469 L 193.410156 348.402344 L 187.496094 351.832031 L 181.582031 348.402344 L 163.769531 338.105469 L 196.402344 319.269531 C 229.039062 300.4375 261.671875 281.601562 294.234375 262.765625 L 252.691406 238.820312 L 145.957031 300.582031 L 137.050781 305.691406 L 122.230469 314.234375 L 116.316406 310.800781 L 51.046875 273.203125 L 45.0625 269.699219 L 45.0625 105.4375 L 51.046875 102.003906 L 116.316406 64.332031 L 122.230469 60.902344 L 128.144531 64.332031 L 252.691406 136.246094 L 294.234375 112.296875 L 246.777344 84.921875 L 211.515625 64.40625 L 187.496094 50.535156 L 163.769531 36.808594 L 181.582031 26.589844 L 187.496094 23.15625 Z M 163.769531 262.910156 L 110.328125 232.027344 L 110.328125 143.105469 L 163.769531 112.226562 L 122.230469 88.277344 L 68.933594 119.085938 L 68.933594 256.046875 L 122.230469 286.855469 Z M 163.769531 262.910156 " fill-opacity="1" fill-rule="evenodd"/></g></svg>